<?xml version="1.0" standalone="no"?><!DOCTYPE svg PUBLIC "-//W3C//DTD SVG 1.1//EN" "http://www.w3.org/Graphics/SVG/1.1/DTD/svg11.dtd"><svg t="1710830840635" class="icon" viewBox="0 0 1024 1024" version="1.1" xmlns="http://www.w3.org/2000/svg" p-id="14973" xmlns:xlink="http://www.w3.org/1999/xlink" width="128" height="128"><path d="M125.1328 79.6672m40.96 0l691.8144 0q40.96 0 40.96 40.96l0 782.7456q0 40.96-40.96 40.96l-691.8144 0q-40.96 0-40.96-40.96l0-782.7456q0-40.96 40.96-40.96Z" fill="#298C7A" p-id="14974"></path><path d="M170.5984 115.5072m30.72 0l0 0q30.72 0 30.72 30.72l0 0q0 30.72-30.72 30.72l0 0q-30.72 0-30.72-30.72l0 0q0-30.72 30.72-30.72Z" fill="#FFFFFF" p-id="14975"></path><path d="M261.7344 115.5072m30.72 0l0 0q30.72 0 30.72 30.72l0 0q0 30.72-30.72 30.72l0 0q-30.72 0-30.72-30.72l0 0q0-30.72 30.72-30.72Z" fill="#FFFFFF" opacity=".7" p-id="14976"></path><path d="M352.8704 115.5072m30.72 0l0 0q30.72 0 30.72 30.72l0 0q0 30.72-30.72 30.72l0 0q-30.72 0-30.72-30.72l0 0q0-30.72 30.72-30.72Z" fill="#FFFFFF" opacity=".5" p-id="14977"></path><path d="M238.592 241.9712h563.2A17.1008 17.1008 0 0 1 819.2 259.072V481.28a17.1008 17.1008 0 0 1-17.1008 17.1008h-563.2a17.1008 17.1008 0 0 1-17.408-17.1008V259.072a17.1008 17.1008 0 0 1 17.1008-17.1008z" fill="#EDEEF0" p-id="14978"></path><path d="M287.8464 293.4784h208.6912A22.9376 22.9376 0 0 1 522.24 319.488v208.5888a23.04 23.04 0 0 1-26.0096 26.112H287.8464a23.04 23.04 0 0 1-26.0096-26.112V319.488a22.9376 22.9376 0 0 1 26.0096-26.0096z" fill="#FFC13C" p-id="14979"></path><path d="M392.192 436.8384a52.1216 52.1216 0 0 1 0-104.2432 52.1216 52.1216 0 1 1 0 104.2432z m99.328 85.9136H292.6592c0-33.792 0-72.9088 99.5328-72.9088s99.328 39.1168 99.328 72.9088z" fill="#FFFFFF" p-id="14980"></path><path d="M579.8912 322.6624H716.8a15.0528 15.0528 0 0 1 16.9984 17.1008V348.16A15.0528 15.0528 0 0 1 716.8 365.3632H579.8912A15.0528 15.0528 0 0 1 563.2 348.16v-8.4992a15.0528 15.0528 0 0 1 16.6912-16.9984zM579.8912 402.432H716.8a15.0528 15.0528 0 0 1 16.6912 17.408v8.4992A15.0528 15.0528 0 0 1 716.8 445.1328H579.8912A15.0528 15.0528 0 0 1 563.2 428.032V419.84a15.0528 15.0528 0 0 1 16.6912-17.408z" fill="#5BADFF" p-id="14981"></path><path d="M579.8912 625.9712h179.2a15.0528 15.0528 0 0 1 17.1008 17.1008v51.2a15.0528 15.0528 0 0 1-17.1008 16.9984h-179.2A14.9504 14.9504 0 0 1 563.2 694.272v-51.2a15.0528 15.0528 0 0 1 16.6912-17.1008zM579.8912 753.9712h179.2a15.0528 15.0528 0 0 1 17.1008 17.1008v51.2a15.0528 15.0528 0 0 1-17.1008 17.408h-179.2A14.9504 14.9504 0 0 1 563.2 822.272v-51.2a15.0528 15.0528 0 0 1 16.6912-17.1008zM281.2928 625.9712h221.7984a15.0528 15.0528 0 0 1 17.1008 17.1008v8.4992a15.1552 15.1552 0 0 1-17.1008 17.1008H281.2928a15.0528 15.0528 0 0 1-17.1008-17.1008v-8.4992a15.0528 15.0528 0 0 1 17.1008-17.1008zM281.2928 711.2704h221.7984a15.1552 15.1552 0 0 1 17.1008 17.1008V737.28a15.1552 15.1552 0 0 1-17.1008 17.1008H281.2928A15.0528 15.0528 0 0 1 264.192 737.28v-8.4992a15.0528 15.0528 0 0 1 17.1008-17.5104zM281.2928 796.672h221.7984a15.0528 15.0528 0 0 1 17.1008 16.9984v8.6016a15.0528 15.0528 0 0 1-17.1008 17.408H281.2928a15.0528 15.0528 0 0 1-17.1008-17.408v-8.6016a15.0528 15.0528 0 0 1 17.1008-16.9984z" fill="#EDEEF0" p-id="14982"></path></svg>